<svg width="600" height="600" viewBox="0 0 600 600" fill="none" xmlns="http://www.w3.org/2000/svg">
<g clip-path="url(#clip0_7_10)">
<rect width="600" height="600" rx="30" fill="white"/>
<path d="M21.7656 127.086C41.2969 128.714 58.3867 129.69 73.0352 130.016C88.0091 130.341 100.704 130.504 111.121 130.504C123.165 130.504 133.582 130.178 142.371 129.527C151.486 128.551 163.367 127.249 178.016 125.621C190.385 123.993 206.336 121.878 225.867 119.273C245.398 116.344 269.161 112.6 297.156 108.043C293.576 113.577 290.483 119.436 287.879 125.621C285.6 131.48 283.647 136.852 282.02 141.734C280.392 147.594 278.927 153.29 277.625 158.824C276.648 165.009 275.509 172.659 274.207 181.773C272.905 189.586 271.277 199.514 269.324 211.559C267.697 223.277 265.581 237.275 262.977 253.551C253.211 228.16 243.283 208.629 233.191 194.957C223.426 181.285 214.311 171.194 205.848 164.684C196.082 157.197 186.805 152.965 178.016 151.988C165.32 151.988 154.904 154.43 146.766 159.312C138.628 164.195 131.954 170.543 126.746 178.355C121.863 185.842 118.12 194.143 115.516 203.258C112.911 212.047 111.121 220.673 110.145 229.137C109.168 237.275 108.517 244.599 108.191 251.109C107.866 257.294 107.54 261.526 107.215 263.805C118.608 263.154 128.211 262.34 136.023 261.363C143.836 260.387 150.021 259.41 154.578 258.434C160.112 257.132 164.507 255.829 167.762 254.527C172.645 251.923 177.527 248.831 182.41 245.25C186.642 241.995 191.036 238.089 195.594 233.531C200.477 228.974 204.708 223.44 208.289 216.93C206.336 228.648 204.546 238.414 202.918 246.227C201.616 254.039 200.477 260.224 199.5 264.781C198.198 270.315 197.384 274.547 197.059 277.477C196.408 280.406 195.594 284.475 194.617 289.684C193.641 294.241 192.501 300.1 191.199 307.262C189.897 314.423 188.432 323.375 186.805 334.117C182.898 327.281 178.829 321.747 174.598 317.516C170.366 312.958 166.46 309.378 162.879 306.773C158.647 303.844 154.578 301.565 150.672 299.938C146.44 298.635 141.883 297.333 137 296.031C132.768 295.055 127.723 294.078 121.863 293.102C116.329 291.799 110.307 290.66 103.797 289.684C104.448 307.262 105.424 322.398 106.727 335.094C108.029 347.464 109.168 357.88 110.145 366.344C111.447 376.109 112.749 384.247 114.051 390.758C115.678 397.268 118.283 404.267 121.863 411.754C124.793 418.264 128.862 425.751 134.07 434.215C139.604 442.353 146.603 451.142 155.066 460.582C148.556 458.954 141.72 457.815 134.559 457.164C127.397 456.513 121.049 456.025 115.516 455.699C108.68 455.374 102.169 455.374 95.9844 455.699C89.474 456.025 82.3125 456.676 74.5 457.652C67.9896 458.303 60.5026 459.28 52.0391 460.582C43.5755 461.884 34.6237 463.349 25.1836 464.977C30.7174 459.443 35.2747 453.909 38.8555 448.375C42.4362 442.841 45.0404 437.958 46.668 433.727C48.6211 428.844 49.9232 424.124 50.5742 419.566C50.8997 415.66 51.0625 407.197 51.0625 394.176C51.0625 380.829 50.8997 365.367 50.5742 347.789C50.2487 329.885 49.7604 311.005 49.1094 291.148C48.4583 271.292 47.8073 252.737 47.1562 235.484C46.5052 217.906 45.6914 202.932 44.7148 190.562C44.0638 178.193 43.25 170.706 42.2734 168.102C40.9714 164.846 39.5065 161.103 37.8789 156.871C35.2747 150.035 29.9036 140.107 21.7656 127.086Z" fill="black"/>
<path d="M302.324 269.738L392.168 270.715C386.96 290.572 383.053 307.499 380.449 321.496C378.171 335.493 376.706 347.212 376.055 356.652C374.753 367.395 374.427 376.509 375.078 383.996C376.055 390.832 377.682 398.156 379.961 405.969C381.914 412.479 384.844 419.966 388.75 428.43C392.656 436.893 397.865 445.357 404.375 453.82C400.469 452.518 396.237 451.542 391.68 450.891C387.122 450.24 382.891 449.751 378.984 449.426C374.427 449.1 369.87 449.1 365.312 449.426C360.755 449.751 355.71 450.24 350.176 450.891C345.618 451.542 340.085 452.355 333.574 453.332C327.064 454.309 320.228 455.611 313.066 457.238C317.949 442.59 321.693 429.895 324.297 419.152C327.227 408.41 329.342 399.458 330.645 392.297C331.947 383.833 332.76 376.997 333.086 371.789C333.086 365.279 333.086 357.954 333.086 349.816C333.086 341.353 333.086 333.215 333.086 325.402C333.086 317.59 332.923 310.754 332.598 304.895C332.272 298.71 331.621 294.803 330.645 293.176L325.762 288.293C323.809 286.665 320.879 284.387 316.973 281.457C313.392 278.202 308.509 274.296 302.324 269.738ZM336.992 194.543C343.828 190.962 350.664 189.986 357.5 191.613C364.661 193.241 370.195 196.333 374.102 200.891C378.008 205.448 379.31 210.819 378.008 217.004C377.031 223.189 371.823 229.211 362.383 235.07C352.943 240.604 344.642 242.557 337.48 240.93C330.319 239.302 325.273 235.884 322.344 230.676C319.414 225.467 318.926 219.445 320.879 212.609C322.832 205.448 328.203 199.426 336.992 194.543Z" fill="black"/>
<path d="M409 198.5C409 227.973 384.897 252 355 252C325.103 252 301 227.973 301 198.5C301 169.027 325.103 145 355 145C384.897 145 409 169.027 409 198.5Z" stroke="black" stroke-width="20"/>
<path d="M562 449.5C562 478.973 537.897 503 508 503C478.103 503 454 478.973 454 449.5C454 420.027 478.103 396 508 396C537.897 396 562 420.027 562 449.5Z" stroke="black" stroke-width="20"/>
<path d="M470.621 135.949C476.806 137.577 482.665 138.879 488.199 139.855C493.733 140.507 498.616 141.158 502.848 141.809C507.73 142.46 512.288 142.948 516.52 143.273C521.077 143.599 526.448 143.924 532.633 144.25C538.167 144.576 544.84 144.738 552.652 144.738C560.465 144.738 569.742 144.738 580.484 144.738C571.044 167.199 563.395 186.242 557.535 201.867C551.676 217.167 547.118 229.862 543.863 239.953C540.283 251.672 537.678 261.275 536.051 268.762C534.749 276.249 533.121 285.363 531.168 296.105C529.54 305.546 527.262 317.102 524.332 330.773C521.402 344.445 518.147 360.721 514.566 379.602L471.598 377.648C474.202 360.396 475.992 345.747 476.969 333.703C477.945 321.333 478.759 311.079 479.41 302.941C480.061 293.501 480.387 285.689 480.387 279.504C480.387 272.993 479.898 263.228 478.922 250.207C478.271 239.465 477.294 224.979 475.992 206.75C474.69 188.195 472.9 164.595 470.621 135.949ZM524.332 416.711C526.611 420.292 527.913 424.361 528.238 428.918C528.889 433.15 528.564 437.544 527.262 442.102C526.285 446.333 524.169 450.402 520.914 454.309C517.984 458.215 513.915 461.307 508.707 463.586C498.29 468.469 489.013 469.771 480.875 467.492C472.737 464.888 466.715 460.656 462.809 454.797C460.53 451.542 459.228 447.961 458.902 444.055C458.902 439.823 459.716 435.754 461.344 431.848C462.971 427.616 465.576 423.71 469.156 420.129C472.737 416.548 477.294 413.618 482.828 411.34C493.57 406.783 502.359 405.155 509.195 406.457C516.357 407.759 521.402 411.177 524.332 416.711Z" fill="black"/>
</g>
<defs>
<clipPath id="clip0_7_10">
<rect width="600" height="600" rx="30" fill="white"/>
</clipPath>
</defs>
</svg>
