<svg width="134" height="30" viewBox="0 0 134 30" fill="none" xmlns="http://www.w3.org/2000/svg">
<path d="M0.703125 3.74219C2.10938 3.85938 3.33984 3.92969 4.39453 3.95312C5.47266 3.97656 6.38672 3.98828 7.13672 3.98828C8.00391 3.98828 8.75391 3.96484 9.38672 3.91797C10.043 3.84766 10.8984 3.75391 11.9531 3.63672C12.8438 3.51953 13.9922 3.36719 15.3984 3.17969C16.8047 2.96875 18.5156 2.69922 20.5312 2.37109C20.2734 2.76953 20.0508 3.19141 19.8633 3.63672C19.6992 4.05859 19.5586 4.44531 19.4414 4.79688C19.3242 5.21875 19.2188 5.62891 19.125 6.02734C19.0547 6.47266 18.9727 7.02344 18.8789 7.67969C18.7852 8.24219 18.668 8.95703 18.5273 9.82422C18.4102 10.668 18.2578 11.6758 18.0703 12.8477C17.3672 11.0195 16.6523 9.61328 15.9258 8.62891C15.2227 7.64453 14.5664 6.91797 13.957 6.44922C13.2539 5.91016 12.5859 5.60547 11.9531 5.53516C11.0391 5.53516 10.2891 5.71094 9.70312 6.0625C9.11719 6.41406 8.63672 6.87109 8.26172 7.43359C7.91016 7.97266 7.64062 8.57031 7.45312 9.22656C7.26562 9.85938 7.13672 10.4805 7.06641 11.0898C6.99609 11.6758 6.94922 12.2031 6.92578 12.6719C6.90234 13.1172 6.87891 13.4219 6.85547 13.5859C7.67578 13.5391 8.36719 13.4805 8.92969 13.4102C9.49219 13.3398 9.9375 13.2695 10.2656 13.1992C10.6641 13.1055 10.9805 13.0117 11.2148 12.918C11.5664 12.7305 11.918 12.5078 12.2695 12.25C12.5742 12.0156 12.8906 11.7344 13.2188 11.4062C13.5703 11.0781 13.875 10.6797 14.1328 10.2109C13.9922 11.0547 13.8633 11.7578 13.7461 12.3203C13.6523 12.8828 13.5703 13.3281 13.5 13.6562C13.4062 14.0547 13.3477 14.3594 13.3242 14.5703C13.2773 14.7812 13.2188 15.0742 13.1484 15.4492C13.0781 15.7773 12.9961 16.1992 12.9023 16.7148C12.8086 17.2305 12.7031 17.875 12.5859 18.6484C12.3047 18.1562 12.0117 17.7578 11.707 17.4531C11.4023 17.125 11.1211 16.8672 10.8633 16.6797C10.5586 16.4688 10.2656 16.3047 9.98438 16.1875C9.67969 16.0938 9.35156 16 9 15.9062C8.69531 15.8359 8.33203 15.7656 7.91016 15.6953C7.51172 15.6016 7.07812 15.5195 6.60938 15.4492C6.65625 16.7148 6.72656 17.8047 6.82031 18.7188C6.91406 19.6094 6.99609 20.3594 7.06641 20.9688C7.16016 21.6719 7.25391 22.2578 7.34766 22.7266C7.46484 23.1953 7.65234 23.6992 7.91016 24.2383C8.12109 24.707 8.41406 25.2461 8.78906 25.8555C9.1875 26.4414 9.69141 27.0742 10.3008 27.7539C9.83203 27.6367 9.33984 27.5547 8.82422 27.5078C8.30859 27.4609 7.85156 27.4258 7.45312 27.4023C6.96094 27.3789 6.49219 27.3789 6.04688 27.4023C5.57812 27.4258 5.0625 27.4727 4.5 27.543C4.03125 27.5898 3.49219 27.6602 2.88281 27.7539C2.27344 27.8477 1.62891 27.9531 0.949219 28.0703C1.34766 27.6719 1.67578 27.2734 1.93359 26.875C2.19141 26.4766 2.37891 26.125 2.49609 25.8203C2.63672 25.4688 2.73047 25.1289 2.77734 24.8008C2.80078 24.5195 2.8125 23.9102 2.8125 22.9727C2.8125 22.0117 2.80078 20.8984 2.77734 19.6328C2.75391 18.3438 2.71875 16.9844 2.67188 15.5547C2.625 14.125 2.57812 12.7891 2.53125 11.5469C2.48438 10.2812 2.42578 9.20313 2.35547 8.3125C2.30859 7.42187 2.25 6.88281 2.17969 6.69531C2.08594 6.46094 1.98047 6.19141 1.86328 5.88672C1.67578 5.39453 1.28906 4.67969 0.703125 3.74219ZM28.5117 12.25C29.1211 12.25 29.7539 12.3672 30.4102 12.6016C31.0664 12.8125 31.6992 13.0938 32.3086 13.4453C32.918 13.7734 33.4688 14.1367 33.9609 14.5352C34.4766 14.9102 34.8984 15.2734 35.2266 15.625C35.8125 16.2578 36.2109 17.1133 36.4219 18.1914C36.6562 19.2461 36.7031 20.3359 36.5625 21.4609C36.4219 22.5625 36.0938 23.6055 35.5781 24.5898C35.0625 25.5742 34.3477 26.3008 33.4336 26.7695C32.7773 27.0977 32.1328 27.3555 31.5 27.543C30.8672 27.7305 30.2578 27.8711 29.6719 27.9648C29.0859 28.0586 28.5352 28.1055 28.0195 28.1055C27.5039 28.1055 27.0586 28.0938 26.6836 28.0703C25.9805 28.0234 25.2422 27.7773 24.4688 27.332C23.7188 26.8867 23.0039 26.3359 22.3242 25.6797C21.668 25.0234 21.1055 24.3086 20.6367 23.5352C20.168 22.7383 19.8867 21.9883 19.793 21.2852C19.6523 20.3242 19.6289 19.3164 19.7227 18.2617C19.8164 17.207 20.1562 16.2344 20.7422 15.3438C21.3516 14.4531 22.2656 13.7148 23.4844 13.1289C24.7266 12.543 26.4023 12.25 28.5117 12.25ZM27.3516 25.8906C27.6094 25.9375 27.9609 25.8789 28.4062 25.7148C28.8516 25.5273 29.2852 25.2344 29.707 24.8359C30.1523 24.4375 30.5391 23.9336 30.8672 23.3242C31.2188 22.6914 31.4297 21.9297 31.5 21.0391C31.5703 20.1719 31.5703 19.375 31.5 18.6484C31.4531 17.9219 31.3477 17.2891 31.1836 16.75C31.0195 16.1875 30.832 15.7305 30.6211 15.3789C30.4102 15.0273 30.1875 14.7812 29.9531 14.6406C29.5547 14.4297 29.0742 14.2656 28.5117 14.1484C27.9492 14.0078 27.4688 14.0312 27.0703 14.2188C26.8828 14.3125 26.6484 14.5117 26.3672 14.8164C26.0859 15.1211 25.8047 15.5078 25.5234 15.9766C25.2422 16.4219 24.9844 16.9375 24.75 17.5234C24.5391 18.1094 24.3867 18.7188 24.293 19.3516C24.1992 19.9844 24.1758 20.6641 24.2227 21.3906C24.293 22.1172 24.4453 22.8086 24.6797 23.4648C24.9141 24.0977 25.2422 24.6484 25.6641 25.1172C26.1094 25.5625 26.6719 25.8203 27.3516 25.8906ZM38.4258 11.8281C39.0352 11.9453 39.5625 12.0391 40.0078 12.1094C40.4766 12.1562 40.875 12.2031 41.2031 12.25C41.5781 12.2969 41.9062 12.332 42.1875 12.3555C42.4688 12.3789 42.7969 12.4023 43.1719 12.4258C43.8047 12.4492 44.6953 12.4492 45.8438 12.4258C45.1641 12.3789 44.625 12.5547 44.2266 12.9531C43.8516 13.3281 43.5703 13.7617 43.3828 14.2539C43.1484 14.8398 43.0195 15.5195 42.9961 16.293C42.9492 17.3242 42.9727 18.2617 43.0664 19.1055C43.1836 19.9258 43.3828 20.6289 43.6641 21.2148C43.9688 21.7773 44.3672 22.1992 44.8594 22.4805C45.3516 22.7383 45.9844 22.8086 46.7578 22.6914C47.5312 22.5742 48.1172 22.3047 48.5156 21.8828C48.9375 21.4375 49.2422 20.8984 49.4297 20.2656C49.6172 19.6094 49.7227 18.8711 49.7461 18.0508C49.793 17.2305 49.8281 16.375 49.8516 15.4844C49.8516 14.5938 49.8398 13.9609 49.8164 13.5859C49.8164 13.1875 49.8047 12.9297 49.7812 12.8125C49.7578 12.6953 49.7227 12.6484 49.6758 12.6719C49.6289 12.6719 49.5703 12.6133 49.5 12.4961C49.4531 12.4023 49.3828 12.3086 49.2891 12.2148C49.2188 12.1211 49.125 12.0156 49.0078 11.8984C48.8906 11.7578 48.7617 11.6172 48.6211 11.4766C49.2305 11.5 49.7695 11.5234 50.2383 11.5469C50.7305 11.5469 51.1406 11.5586 51.4688 11.582C51.8438 11.6055 52.1719 11.6289 52.4531 11.6523C52.7109 11.6758 53.0508 11.7109 53.4727 11.7578C53.8242 11.8047 54.2812 11.8516 54.8438 11.8984C55.4062 11.9453 56.0742 12.0156 56.8477 12.1094C56.3086 12.2266 55.875 12.4023 55.5469 12.6367C55.2188 12.8711 54.9609 13.1055 54.7734 13.3398C54.5625 13.5977 54.4102 13.8789 54.3164 14.1836C54.2461 14.582 54.2461 15.1914 54.3164 16.0117C54.3633 16.7383 54.4805 17.7344 54.668 19C54.8555 20.2656 55.1484 21.9297 55.5469 23.9922L52.7695 25.6445L52.207 20.9688C51.5273 22.1172 50.8008 23.0078 50.0273 23.6406C49.2773 24.25 48.5742 24.6953 47.918 24.9766C47.1445 25.3047 46.3945 25.4922 45.668 25.5391C44.707 25.5391 43.875 25.4805 43.1719 25.3633C42.4922 25.2227 41.9062 25.0469 41.4141 24.8359C40.9219 24.625 40.5234 24.3906 40.2188 24.1328C39.9375 23.8516 39.7266 23.5703 39.5859 23.2891C39.2578 22.7031 39.082 21.9531 39.0586 21.0391C39.0352 20.1016 39.0703 19.1758 39.1641 18.2617C39.2578 17.3242 39.3633 16.4688 39.4805 15.6953C39.5977 14.9219 39.6328 14.3945 39.5859 14.1133C39.5391 13.9023 39.4688 13.668 39.375 13.4102C39.2812 13.1992 39.1641 12.9648 39.0234 12.707C38.8828 12.4258 38.6836 12.1328 38.4258 11.8281ZM58.4648 24.1328C58.6289 23.3594 58.7461 22.6797 58.8164 22.0938C58.9102 21.4844 58.9805 20.9805 59.0273 20.582C59.0742 20.1133 59.0977 19.7148 59.0977 19.3867C59.0742 18.9883 59.0508 18.5195 59.0273 17.9805C59.0273 17.418 59.0039 16.8672 58.957 16.3281C58.9336 15.7656 58.8984 15.2734 58.8516 14.8516C58.8047 14.4062 58.7461 14.0898 58.6758 13.9023C58.582 13.7148 58.4531 13.5156 58.2891 13.3047C57.9609 12.9062 57.4805 12.5195 56.8477 12.1445C57.3867 12.0273 57.8438 11.9336 58.2188 11.8633C58.6172 11.7695 58.9453 11.6875 59.2031 11.6172C59.4844 11.5234 59.7305 11.4414 59.9414 11.3711C60.1289 11.3008 60.3516 11.2305 60.6094 11.1602C60.8203 11.1133 61.0781 11.0547 61.3828 10.9844C61.6875 10.9141 62.0391 10.832 62.4375 10.7383L62.332 13.9375C63.082 13.0469 63.8438 12.3789 64.6172 11.9336C65.3906 11.4883 66.1172 11.1719 66.7969 10.9844C67.5703 10.75 68.332 10.6328 69.082 10.6328C70.0195 10.6797 70.8867 10.832 71.6836 11.0898C72.5039 11.3477 73.207 11.6523 73.793 12.0039C74.4023 12.332 74.8945 12.6836 75.2695 13.0586C75.6445 13.4336 75.8672 13.7617 75.9375 14.043C76.2188 14.957 76.2891 15.8008 76.1484 16.5742C76.0078 17.3242 75.8203 18.0625 75.5859 18.7891C75.375 19.4922 75.1875 20.1953 75.0234 20.8984C74.8828 21.6016 74.9414 22.3633 75.1992 23.1836C75.293 23.3945 75.3867 23.6055 75.4805 23.8164C75.5742 24.0039 75.6914 24.1914 75.832 24.3789C75.9727 24.5664 76.1367 24.7188 76.3242 24.8359C76.0664 24.8125 75.8086 24.8008 75.5508 24.8008C75.293 24.7773 75.0586 24.7539 74.8477 24.7305C74.5898 24.707 74.3555 24.6836 74.1445 24.6602C73.9102 24.6367 73.5938 24.625 73.1953 24.625C72.5156 24.625 71.4609 24.6602 70.0312 24.7305C70.2422 24.2383 70.4062 23.8281 70.5234 23.5C70.6641 23.1484 70.7812 22.8672 70.875 22.6562C70.9688 22.3984 71.0391 22.1992 71.0859 22.0586C71.3672 21.3789 71.5312 20.6055 71.5781 19.7383C71.6484 18.8711 71.5898 17.9922 71.4023 17.1016C71.332 16.7969 71.2148 16.4336 71.0508 16.0117C70.8867 15.5898 70.6641 15.1797 70.3828 14.7812C70.125 14.3828 69.8086 14.043 69.4336 13.7617C69.082 13.4805 68.6719 13.3164 68.2031 13.2695C67.7344 13.2227 67.207 13.3398 66.6211 13.6211C66.0586 13.9023 65.4492 14.418 64.793 15.168C64.3008 15.8008 63.9141 16.5742 63.6328 17.4883C63.375 18.2617 63.1992 19.2344 63.1055 20.4062C63.0117 21.5547 63.1523 22.9023 63.5273 24.4492C63.1992 24.4023 62.8945 24.3789 62.6133 24.3789C62.332 24.3555 62.0977 24.332 61.9102 24.3086C61.6758 24.2852 61.4648 24.2617 61.2773 24.2383C61.0664 24.2383 60.832 24.2266 60.5742 24.2031C60.3398 24.2031 60.0469 24.2031 59.6953 24.2031C59.3438 24.1797 58.9336 24.1562 58.4648 24.1328ZM95.7305 1.07031C96.1758 1.09375 96.6562 1.10547 97.1719 1.10547C97.6172 1.10547 98.1211 1.11719 98.6836 1.14062C99.2695 1.14062 99.8789 1.11719 100.512 1.07031C99.9492 1.32813 99.457 1.70312 99.0352 2.19531C98.6133 2.6875 98.2734 3.17969 98.0156 3.67188C97.6875 4.25781 97.418 4.86719 97.207 5.5C97.0898 5.875 96.9961 6.54297 96.9258 7.50391C96.8555 8.44141 96.7969 9.54297 96.75 10.8086C96.7266 12.0742 96.7148 13.4102 96.7148 14.8164C96.7148 16.2227 96.7266 17.5703 96.75 18.8594C96.7734 20.125 96.8086 21.25 96.8555 22.2344C96.9023 23.2188 96.9609 23.9102 97.0312 24.3086C97.125 24.7773 97.2422 25.2227 97.3828 25.6445C97.5 26.0195 97.6523 26.4062 97.8398 26.8047C98.0273 27.1797 98.2617 27.4844 98.543 27.7188L94.957 29.3359C94.7695 29.0781 94.6172 28.8086 94.5 28.5273C94.3828 28.2695 94.2891 28.0352 94.2188 27.8242C94.125 27.5664 94.0664 27.332 94.043 27.1211C93.9961 26.8398 93.9492 26.5352 93.9023 26.207C93.8555 25.8555 93.7969 25.5273 93.7266 25.2227C93.6797 24.8945 93.6445 24.625 93.6211 24.4141C93.5977 24.2031 93.5977 24.0742 93.6211 24.0273C93.6445 23.9805 93.5039 24.1914 93.1992 24.6602C92.8945 25.1055 92.4375 25.6328 91.8281 26.2422C91.2422 26.8281 90.5156 27.4023 89.6484 27.9648C88.7812 28.5039 87.8086 28.8438 86.7305 28.9844C85.6289 29.125 84.6094 28.9141 83.6719 28.3516C82.7578 27.7891 81.9727 27.0039 81.3164 25.9961C80.6602 24.9648 80.1562 23.7812 79.8047 22.4453C79.4766 21.0859 79.3477 19.7031 79.418 18.2969C79.4648 17.3594 79.6758 16.5273 80.0508 15.8008C80.4258 15.0508 80.8945 14.4062 81.457 13.8672C82.043 13.3047 82.6758 12.8359 83.3555 12.4609C84.0586 12.0625 84.7383 11.7344 85.3945 11.4766C86.0742 11.2188 86.707 11.0312 87.293 10.9141C87.8789 10.7969 88.3477 10.7148 88.6992 10.668C89.1211 10.6445 89.6016 10.7148 90.1406 10.8789C90.6094 11.0195 91.1484 11.2539 91.7578 11.582C92.3906 11.9102 93.0938 12.4023 93.8672 13.0586C93.7266 10.7148 93.5977 8.83984 93.4805 7.43359C93.3633 6.00391 93.2461 4.91406 93.1289 4.16406C93.0117 3.27344 92.9062 2.66406 92.8125 2.33594C92.6953 2.10156 92.543 1.86719 92.3555 1.63281C92.1914 1.44531 91.9805 1.25781 91.7227 1.07031C91.4883 0.859375 91.207 0.695313 90.8789 0.578125C91.4883 0.695313 92.0742 0.777344 92.6367 0.824219C93.1992 0.871094 93.7148 0.917969 94.1836 0.964844C94.7227 1.01172 95.2383 1.04688 95.7305 1.07031ZM86.9062 14.1836C86.4609 14.3477 86.0977 14.6289 85.8164 15.0273C85.5586 15.4258 85.3477 15.9062 85.1836 16.4688C85.0195 17.0078 84.9023 17.5938 84.832 18.2266C84.7852 18.8359 84.75 19.4336 84.7266 20.0195C84.7266 20.582 84.7266 21.0977 84.7266 21.5664C84.7266 22.0352 84.7266 22.3867 84.7266 22.6211C84.7266 22.7617 84.75 23.0195 84.7969 23.3945C84.8672 23.7461 85.0078 24.1211 85.2188 24.5195C85.4297 24.8945 85.7227 25.2344 86.0977 25.5391C86.4961 25.8438 87.0234 25.9961 87.6797 25.9961C88.2188 25.9492 88.793 25.7617 89.4023 25.4336C89.9414 25.1523 90.5508 24.707 91.2305 24.0977C91.9336 23.4648 92.6836 22.5625 93.4805 21.3906C93.4336 20.6406 93.3984 20.0195 93.375 19.5273C93.375 19.0352 93.3633 18.6367 93.3398 18.332C93.3164 17.9805 93.3047 17.6992 93.3047 17.4883V16.9609C93.3047 16.8203 93.3047 16.668 93.3047 16.5039C93.3047 16.3398 93.3164 16.1875 93.3398 16.0469C92.6836 15.5781 92.0977 15.1797 91.582 14.8516C91.0898 14.5 90.5977 14.2422 90.1055 14.0781C89.6367 13.8906 89.1445 13.8086 88.6289 13.832C88.1367 13.832 87.5625 13.9492 86.9062 14.1836ZM99.5977 3.77734C100.395 3.87109 101.062 3.94141 101.602 3.98828C102.164 4.01172 102.621 4.04687 102.973 4.09375C103.395 4.14063 103.723 4.16406 103.957 4.16406C104.215 4.1875 104.602 4.17578 105.117 4.12891C105.562 4.08203 106.16 4.02344 106.91 3.95312C107.684 3.88281 108.668 3.77734 109.863 3.63672C109.324 4.10547 108.891 4.5625 108.562 5.00781C108.258 5.42969 108.023 5.80469 107.859 6.13281C107.648 6.53125 107.52 6.90625 107.473 7.25781C107.379 7.82031 107.297 8.59375 107.227 9.57812C107.18 10.5391 107.133 11.5938 107.086 12.7422C107.039 13.8906 107.016 15.0742 107.016 16.293C107.016 17.5117 107.027 18.6719 107.051 19.7734C107.098 20.8516 107.168 21.8125 107.262 22.6562C107.379 23.5 107.52 24.1094 107.684 24.4844C107.918 24.9062 108.164 25.3281 108.422 25.75C108.656 26.1016 108.938 26.4648 109.266 26.8398C109.594 27.2148 109.969 27.5195 110.391 27.7539C109.008 27.6836 107.906 27.6484 107.086 27.6484H105.82C105.445 27.6484 104.965 27.6719 104.379 27.7188C103.887 27.7656 103.266 27.8125 102.516 27.8594C101.766 27.9062 100.863 27.9766 99.8086 28.0703C100.348 27.4844 100.77 26.9219 101.074 26.3828C101.379 25.8438 101.625 25.375 101.812 24.9766C102.023 24.5078 102.164 24.0625 102.234 23.6406C102.328 23.0312 102.398 22.2812 102.445 21.3906C102.516 20.4766 102.562 19.5039 102.586 18.4727C102.609 17.418 102.609 16.3516 102.586 15.2734C102.586 14.1719 102.562 13.1172 102.516 12.1094C102.469 11.1016 102.398 10.1875 102.305 9.36719C102.234 8.54687 102.141 7.89062 102.023 7.39844C101.953 7.09375 101.812 6.75391 101.602 6.37891C101.414 6.05078 101.156 5.67578 100.828 5.25391C100.523 4.80859 100.113 4.31641 99.5977 3.77734ZM110.672 5.85156C111.375 5.92188 111.961 5.98047 112.43 6.02734C112.922 6.07422 113.32 6.10938 113.625 6.13281C113.977 6.15625 114.258 6.16797 114.469 6.16797C114.68 6.19141 114.961 6.19141 115.312 6.16797C115.617 6.14453 116.016 6.12109 116.508 6.09766C117 6.05078 117.621 5.98047 118.371 5.88672C118.207 6.12109 118.078 6.33203 117.984 6.51953C117.891 6.68359 117.809 6.83594 117.738 6.97656L117.527 7.39844C117.48 7.53906 117.434 7.67969 117.387 7.82031C117.34 7.9375 117.293 8.07813 117.246 8.24219C117.223 8.40625 117.199 8.58203 117.176 8.76953H122.59L122.098 11.6172L117.141 11.3359C117.023 12.5312 116.941 13.457 116.895 14.1133C116.848 14.7695 116.801 15.25 116.754 15.5547L116.684 16.1875C116.613 17.0781 116.543 18.0508 116.473 19.1055C116.402 20.1367 116.379 21.0977 116.402 21.9883C116.426 22.8789 116.508 23.6289 116.648 24.2383C116.789 24.8242 117.035 25.1172 117.387 25.1172C117.738 25.1172 118.066 25.0234 118.371 24.8359C118.676 24.6484 118.934 24.4258 119.145 24.168C119.379 23.9102 119.555 23.6523 119.672 23.3945C119.789 23.1133 119.848 22.9023 119.848 22.7617C119.848 22.6211 119.812 22.457 119.742 22.2695C119.625 21.918 119.414 21.4727 119.109 20.9336C119.789 21.0977 120.387 21.2617 120.902 21.4258C121.16 21.5195 121.395 21.6133 121.605 21.707C121.84 21.8008 122.109 21.9062 122.414 22.0234C122.672 22.1406 123 22.2812 123.398 22.4453C123.797 22.6094 124.266 22.8086 124.805 23.043C124.289 23.1367 123.914 23.2891 123.68 23.5C123.539 23.5938 123.434 23.6992 123.363 23.8164C123.199 24.0742 123.012 24.4258 122.801 24.8711C122.59 25.293 122.273 25.7148 121.852 26.1367C121.43 26.5586 120.855 26.9336 120.129 27.2617C119.426 27.5898 118.477 27.7773 117.281 27.8242C116.039 27.8711 115.09 27.6602 114.434 27.1914C113.801 26.7227 113.332 26.1836 113.027 25.5742C112.746 24.9414 112.582 24.3203 112.535 23.7109C112.488 23.1016 112.453 22.6914 112.43 22.4805C112.406 22.2695 112.406 21.7422 112.43 20.8984C112.453 20.0547 112.488 19.1289 112.535 18.1211C112.582 17.0898 112.629 16.1055 112.676 15.168C112.723 14.207 112.746 13.5039 112.746 13.0586C112.746 12.8242 112.758 12.5781 112.781 12.3203C112.781 12.1094 112.781 11.8867 112.781 11.6523C112.805 11.3945 112.816 11.1484 112.816 10.9141L107.719 10.8789L107.508 8.875L112.641 9.01562C112.594 8.75781 112.535 8.52344 112.465 8.3125C112.418 8.07813 112.371 7.89062 112.324 7.75C112.254 7.58594 112.184 7.44531 112.113 7.32812C112.02 7.21094 111.914 7.08203 111.797 6.94141C111.68 6.82422 111.527 6.67188 111.34 6.48438C111.152 6.29687 110.93 6.08594 110.672 5.85156ZM125.473 2.65234C125.918 2.76953 126.34 2.86328 126.738 2.93359C127.137 2.98047 127.488 3.02734 127.793 3.07422C128.145 3.12109 128.473 3.15625 128.777 3.17969C129.105 3.20312 129.492 3.22656 129.938 3.25C130.336 3.27344 130.816 3.28516 131.379 3.28516C131.941 3.28516 132.609 3.28516 133.383 3.28516C132.703 4.90234 132.152 6.27344 131.73 7.39844C131.309 8.5 130.98 9.41406 130.746 10.1406C130.488 10.9844 130.301 11.6758 130.184 12.2148C130.09 12.7539 129.973 13.4102 129.832 14.1836C129.715 14.8633 129.551 15.6953 129.34 16.6797C129.129 17.6641 128.895 18.8359 128.637 20.1953L125.543 20.0547C125.73 18.8125 125.859 17.7578 125.93 16.8906C126 16 126.059 15.2617 126.105 14.6758C126.152 13.9961 126.176 13.4336 126.176 12.9883C126.176 12.5195 126.141 11.8164 126.07 10.8789C126.023 10.1055 125.953 9.0625 125.859 7.75C125.766 6.41406 125.637 4.71484 125.473 2.65234ZM129.34 22.8672C129.504 23.125 129.598 23.418 129.621 23.7461C129.668 24.0508 129.645 24.3672 129.551 24.6953C129.48 25 129.328 25.293 129.094 25.5742C128.883 25.8555 128.59 26.0781 128.215 26.2422C127.465 26.5938 126.797 26.6875 126.211 26.5234C125.625 26.3359 125.191 26.0312 124.91 25.6094C124.746 25.375 124.652 25.1172 124.629 24.8359C124.629 24.5312 124.688 24.2383 124.805 23.957C124.922 23.6523 125.109 23.3711 125.367 23.1133C125.625 22.8555 125.953 22.6445 126.352 22.4805C127.125 22.1523 127.758 22.0352 128.25 22.1289C128.766 22.2227 129.129 22.4688 129.34 22.8672Z" fill="black"/>
</svg>
